<svg xmlns="http://www.w3.org/2000/svg" width="24" height="24" viewBox="0 0 24 24" fill="#0030FF">
  <path d="M12 2.4C6.69808 2.4 2.4 6.69808 2.4 12H0C0 5.3726 5.3726 0 12 0C18.6274 0 24 5.3726 24 12C24 18.6274 18.6274 24 12 24V21.6C17.3019 21.6 21.6 17.3019 21.6 12C21.6 6.69808 17.3019 2.4 12 2.4Z" fill="#0030FF"/>
  <path d="M12 7.19999C9.34909 7.19999 7.20005 9.34903 7.20005 12C7.20005 14.6509 9.34909 16.8 12 16.8V19.2C8.02361 19.2 4.80005 15.9764 4.80005 12C4.80005 8.02355 8.02361 4.79999 12 4.79999V7.19999Z" fill="#0030FF"/>
</svg>